<svg height="316.227766" viewBox="0 0 4539.1587 4539.1772" width="316.227766" xmlns="http://www.w3.org/2000/svg"><path d="m1413.23 1.49423s-1411.76944 0-1411.76944 1411.77577v13474.93s0 1411.8 1411.76944 1411.8h13474.97s1411.7 0 1411.7-1411.8v-13474.93s0-1411.77577-1411.7-1411.77577z" fill="#c50005" transform="matrix(.2785026597 0 0 -.2785026597 -.40677 4539.5934)"/><path d="m12681.3 15031.6c1108.9 0 2013.6-4669.3 2013.6-10440.27l1605.1-.07c0 6208.84-1619.7 11242.94-3618.7 11242.94-1130.9 0-2145-1510.2-2808.93-3874.1-663.92 2363.9-1670.73 3874.1-2808.89 3874.1-1991.76 0-3611.42-5034.1-3611.42-11242.85l1605.08-.07c0 5771.02 897.38 10440.32 2006.34 10440.32 1108.98 0 2006.35-4311.8 2006.35-9637.71l1605.07-.07c0 5325.98 904.7 9637.78 2006.4 9637.78z" fill="#ffc423" transform="matrix(.22610532768 0 0 -.22610532768 -.40677 4539.5934)"/><path d="m14965 13164.7-86.8 10.8 10.9 282.2s10.8 141.1-152 141.1c-173.6 0-575.2 0-575.2 0l173.6 303.9-716.3 455.8 325.6 10.9-141.1 390.7 412.4-65.1 10.9 314.7 390.7-455.8-184.5 944.2 336.5-162.8 195.3 531.8 195.4-531.8 336.5 162.8-184.5-944.2 390.7 455.8 10.8-314.7 390.7 65.1-119.3-390.7 314.7-10.9-705.5-455.8 173.7-303.9s-369 0-575.3 0c-195.3 0-162.7-141.1-162.7-141.1l21.7-282.2z" fill="#ee3025" transform="matrix(.14959466293 0 0 -.14959466293 -.40677 4539.5934)"/></svg>