<?xml version="1.0" encoding="UTF-8" standalone="no"?>
<!-- Created with Inkscape (http://www.inkscape.org/) -->

<svg
   version="1.1"
   id="svg2"
   width="386.66666"
   height="132"
   viewBox="0 0 386.66666 132"
   sodipodi:docname="base_logo_transparent_background.eps"
   xmlns:inkscape="http://www.inkscape.org/namespaces/inkscape"
   xmlns:sodipodi="http://sodipodi.sourceforge.net/DTD/sodipodi-0.dtd"
   xmlns="http://www.w3.org/2000/svg"
   xmlns:svg="http://www.w3.org/2000/svg">
  <defs
     id="defs6" />
  <sodipodi:namedview
     id="namedview4"
     pagecolor="#ffffff"
     bordercolor="#000000"
     borderopacity="0.25"
     inkscape:showpageshadow="2"
     inkscape:pageopacity="0.0"
     inkscape:pagecheckerboard="0"
     inkscape:deskcolor="#d1d1d1" />
  <g
     id="g8"
     inkscape:groupmode="layer"
     inkscape:label="ink_ext_XXXXXX"
     transform="matrix(1.3333333,0,0,-1.3333333,0,132)">
    <g
       id="g10"
       transform="scale(0.1)">
      <path
         d="m 1769.38,523.98 237.73,282.43 H 1790.82 L 1615.66,599.059 V 806.41 h -164.41 l 1.76,-621.14 207.34,210.039 169.81,-210.93 h 212.69 z"
         style="fill:#6964cd;fill-opacity:1;fill-rule:nonzero;stroke:none"
         id="path12" />
      <path
         d="m 2109.88,806.41 1.8,-621.14 h 165.31 l -1.79,621.14 z"
         style="fill:#6964cd;fill-opacity:1;fill-rule:nonzero;stroke:none"
         id="path14" />
      <path
         d="M 2892.73,807.27 H 2343.12 V 651.801 h 192.15 l 1.8,-466.531 h 165.31 l -1.79,466.531 h 192.14 z"
         style="fill:#6964cd;fill-opacity:1;fill-rule:nonzero;stroke:none"
         id="path16" />
      <path
         d="M 1317.77,784.102 C 1317.77,897.809 1225.59,990 1111.88,990 H 205.898 C 92.1914,990 0,897.809 0,784.102 V 207.578 C 0,93.8711 92.1914,1.67969 205.898,1.67969 h 905.982 c 113.71,0 205.89,92.19141 205.89,205.89831 z M 823.59,454.648 c -16.051,-16.097 -16.051,-42.148 0,-58.238 L 954.648,265.391 c 16.09,-16.09 42.153,-16.09 58.242,0 l 131.02,131.019 c 16.09,16.09 16.09,42.141 0,58.238 -16.06,16.09 -42.15,16.09 -58.25,0 l -60.7,-60.738 v 344.449 c 0,22.731 -18.44,41.172 -41.21,41.172 -22.73,0 -41.172,-18.441 -41.172,-41.172 V 393.91 l -60.738,60.738 c -16.059,16.09 -42.149,16.09 -58.25,0 z M 397.809,365.121 c 8.402,-18.281 15.082,-33.359 20,-45.199 h 57.812 c 4.969,11.84 11.367,26.918 19.301,45.199 8.398,18.277 17.269,38.039 26.68,59.289 9.378,21.25 19.257,43.012 29.648,65.238 10.859,22.731 20.98,43.981 30.391,63.75 9.379,20.274 18.05,38.321 25.937,54.102 8.402,15.82 15.082,27.93 20,36.328 5.434,-58.316 9.883,-121.558 13.363,-189.769 3.438,-67.688 6.399,-136.129 8.899,-205.309 h 70.39 c -8.39,176.91 -20.968,348.129 -37.769,513.672 H 619.449 C 606.09,740.699 591.762,715 576.449,685.352 561.129,655.699 545.82,624.57 530.469,591.949 515.16,559.84 500.352,527.461 486.02,494.84 c -14.34,-32.11 -27.43,-61.52 -39.301,-88.199 -11.84,26.679 -24.957,56.089 -39.297,88.199 -14.301,32.621 -29.141,65 -44.453,97.109 -15.309,32.621 -30.629,63.75 -45.981,93.403 C 301.68,715 287.34,740.699 274.02,762.422 h -63 c -4.461,-37.031 -8.68,-76.332 -12.622,-117.852 -3.437,-41.48 -6.918,-84.261 -10.347,-128.242 -2.973,-43.476 -5.711,-87.93 -8.172,-133.398 -2.457,-45 -4.68,-89.692 -6.68,-134.18 h 70.43 c 2.461,69.18 5.43,137.621 8.871,205.309 3.48,68.211 7.93,131.453 13.359,189.769 4.961,-8.398 11.371,-20.508 19.262,-36.328 8.399,-15.781 17.301,-33.828 26.719,-54.102 9.371,-19.769 19.25,-41.019 29.64,-63.75 10.86,-22.226 20.981,-43.988 30.399,-65.238 9.371,-21.25 18,-41.012 25.93,-59.289 z"
         style="fill:#6964cd;fill-opacity:1;fill-rule:evenodd;stroke:none"
         id="path18" />
    </g>
  </g>
</svg>
